<svg width="500" height="300" viewBox="0 0 500 300" fill="none" xmlns="http://www.w3.org/2000/svg">
<rect width="500" height="300" rx="20" fill="#222222"/>
<path d="M113.857 158.508C113.857 151.404 108.545 148.78 103.809 148.012C108.161 146.924 111.937 143.788 111.937 138.476C111.937 129.836 104.065 127.148 94.9765 127.148H80.8965V171.5H95.6165C105.217 171.5 113.857 168.748 113.857 158.508ZM101.377 139.564C101.377 143.276 99.4565 144.876 94.9765 144.876H91.3925V134.572H94.5925C99.2645 134.572 101.377 136.044 101.377 139.564ZM103.041 158.06C103.041 162.924 99.3925 163.82 95.2325 163.82H91.3925V151.916H95.6805C100.161 151.916 103.041 153.452 103.041 158.06ZM146.088 136.492C140.648 136.492 136.936 139.308 134.503 145.132L132.712 137.516H120.488V144.236H124.968V164.716H120.488V171.5H141.8V164.716H135.08V154.988C136.68 149.932 139.624 146.156 143.464 145.452V151.724H149.864L151.72 137.516C150.12 136.876 148.392 136.492 146.088 136.492ZM173.199 119.724C169.679 119.724 167.183 122.22 167.183 125.42C167.183 128.684 169.679 131.116 173.199 131.116C176.719 131.116 179.151 128.684 179.151 125.42C179.151 122.22 176.719 119.724 173.199 119.724ZM179.279 137.516H159.887V144.428H169.167V164.588H159.567V171.5H187.983V164.588H179.279V137.516ZM225.526 161.708V148.396C225.526 140.588 220.79 136.364 210.678 136.364C206.902 136.364 201.845 137.26 197.43 138.924L199.734 145.644C203.126 144.492 206.902 143.852 209.078 143.852C213.43 143.852 215.798 145.516 215.798 149.1V150.316H211.253C200.758 150.316 194.678 154.54 194.678 161.9C194.678 168.172 199.158 172.588 206.198 172.588C210.422 172.588 214.71 171.116 217.334 167.98C218.934 170.796 221.686 172.076 225.654 172.46L227.766 165.804C226.166 165.228 225.526 164.268 225.526 161.708ZM209.654 165.356C206.774 165.356 205.11 163.82 205.11 161.196C205.11 157.868 207.67 156.076 213.302 156.076H215.798V161.644C214.518 164.012 211.83 165.356 209.654 165.356ZM235.293 171.5H245.405V147.756C247.325 145.324 249.181 143.852 251.357 143.852C253.853 143.852 254.621 145.26 254.621 149.484V171.5H264.733V146.54C264.733 140.076 261.213 136.364 255.389 136.364C251.037 136.364 247.837 138.028 244.829 141.42L244.125 137.516H235.293V171.5ZM313.515 171.5H342.187L343.211 163.18H324.01V127.148H313.515V171.5ZM379.026 161.708V148.396C379.026 140.588 374.29 136.364 364.178 136.364C360.402 136.364 355.345 137.26 350.93 138.924L353.234 145.644C356.626 144.492 360.402 143.852 362.578 143.852C366.93 143.852 369.298 145.516 369.298 149.1V150.316H364.753C354.258 150.316 348.178 154.54 348.178 161.9C348.178 168.172 352.658 172.588 359.698 172.588C363.922 172.588 368.21 171.116 370.834 167.98C372.434 170.796 375.186 172.076 379.154 172.46L381.266 165.804C379.666 165.228 379.026 164.268 379.026 161.708ZM363.154 165.356C360.274 165.356 358.61 163.82 358.61 161.196C358.61 157.868 361.17 156.076 366.802 156.076H369.298V161.644C368.018 164.012 365.33 165.356 363.154 165.356ZM417.657 171.5L422.521 137.516H413.561L411.257 165.164L408.121 141.804H399.545L396.025 165.164L393.785 137.516H384.505L389.561 171.5H400.505L403.577 148.652L406.521 171.5H417.657Z" fill="url(#paint0_linear_2_2)"/>
<defs>
<linearGradient id="paint0_linear_2_2" x1="250" y1="111.5" x2="250" y2="188.5" gradientUnits="userSpaceOnUse">
<stop stop-color="#33DD77"/>
<stop offset="1" stop-color="#4488BB"/>
</linearGradient>
</defs>
</svg>
